<?xml version="1.0" encoding="UTF-8"?>
<svg xmlns="http://www.w3.org/2000/svg" xmlns:xlink="http://www.w3.org/1999/xlink" viewBox="0 0 100 100" width="50px" height="50px">
<g id="surface25629982">
<path style=" stroke:none;fill-rule:nonzero;fill:rgb(20.392157%,59.607846%,85.882354%);fill-opacity:1;" d="M 50 15 C 30.671875 15 15 30.671875 15 50 C 15 69.328125 30.671875 85 50 85 C 69.328125 85 85 69.328125 85 50 C 85 30.671875 69.328125 15 50 15 Z M 50 78 C 34.539062 78 22 65.460938 22 50 C 22 34.539062 34.539062 22 50 22 C 65.460938 22 78 34.539062 78 50 C 78 65.460938 65.460938 78 50 78 Z M 50 78 "/>
<path style=" stroke:none;fill-rule:nonzero;fill:rgb(12.156863%,12.941177%,16.862746%);fill-opacity:1;" d="M 50 86 C 30.148438 86 14 69.851562 14 50 C 14 30.148438 30.148438 14 50 14 C 69.851562 14 86 30.148438 86 50 C 86 69.851562 69.851562 86 50 86 Z M 50 16 C 31.253906 16 16 31.253906 16 50 C 16 68.746094 31.253906 84 50 84 C 68.746094 84 84 68.746094 84 50 C 84 31.253906 68.746094 16 50 16 Z M 50 16 "/>
<path style=" stroke:none;fill-rule:nonzero;fill:rgb(12.156863%,12.941177%,16.862746%);fill-opacity:1;" d="M 75.105469 37 C 74.929688 37 74.757812 36.90625 74.664062 36.738281 C 74.300781 36.0625 73.910156 35.398438 73.5 34.773438 C 73.351562 34.539062 73.414062 34.230469 73.648438 34.082031 C 73.875 33.933594 74.1875 33.996094 74.339844 34.226562 C 74.761719 34.878906 75.167969 35.5625 75.546875 36.261719 C 75.675781 36.503906 75.585938 36.808594 75.34375 36.941406 C 75.269531 36.980469 75.1875 37 75.105469 37 Z M 50 79 C 34.011719 79 21 65.988281 21 50 C 21 48.808594 21.074219 47.613281 21.21875 46.4375 C 21.25 46.164062 21.507812 45.96875 21.773438 46.003906 C 22.046875 46.035156 22.242188 46.285156 22.210938 46.558594 C 22.070312 47.691406 22 48.851562 22 50 C 22 65.4375 34.5625 78 50 78 C 65.4375 78 78 65.4375 78 50 C 78 46.070312 77.203125 42.269531 75.628906 38.703125 C 75.515625 38.449219 75.632812 38.152344 75.882812 38.042969 C 76.132812 37.929688 76.429688 38.046875 76.542969 38.296875 C 78.171875 41.992188 79 45.929688 79 50 C 79 65.988281 65.988281 79 50 79 Z M 22.5 42.992188 C 22.457031 42.992188 22.410156 42.984375 22.367188 42.972656 C 22.101562 42.902344 21.945312 42.625 22.015625 42.359375 C 25.441406 29.78125 36.949219 21 50 21 C 57.558594 21 64.714844 23.890625 70.144531 29.140625 C 70.34375 29.332031 70.351562 29.648438 70.15625 29.847656 C 69.96875 30.046875 69.652344 30.050781 69.449219 29.859375 C 64.203125 24.789062 57.296875 22 50 22 C 37.398438 22 26.289062 30.480469 22.980469 42.621094 C 22.921875 42.84375 22.722656 42.992188 22.5 42.992188 Z M 72.496094 33 C 72.347656 33 72.199219 32.933594 72.101562 32.808594 C 71.839844 32.472656 71.574219 32.148438 71.300781 31.824219 C 71.117188 31.613281 71.144531 31.300781 71.355469 31.121094 C 71.5625 30.941406 71.878906 30.964844 72.058594 31.175781 C 72.34375 31.507812 72.621094 31.847656 72.890625 32.195312 C 73.058594 32.414062 73.019531 32.726562 72.804688 32.894531 C 72.710938 32.964844 72.605469 33 72.496094 33 Z M 72.496094 33 "/>
</g>
</svg>
